<?xml version="1.0" encoding="UTF-8"?>
<svg width="24px" height="16px" viewBox="0 0 24 16" version="1.1" xmlns="http://www.w3.org/2000/svg" xmlns:xlink="http://www.w3.org/1999/xlink">
    <!-- Generator: Sketch 55.1 (78136) - https://sketchapp.com -->
    <title>burger-nav</title>
    <desc>Created with Sketch.</desc>
    <defs>
        <path d="M22.9090909,15.6363636 L1.09090909,15.6363636 C0.488727273,15.6363636 0,15.1476364 0,14.5454545 C0,13.9432727 0.488727273,13.4545455 1.09090909,13.4545455 L22.9090909,13.4545455 C23.5112727,13.4545455 24,13.9432727 24,14.5454545 C24,15.1476364 23.5112727,15.6363636 22.9090909,15.6363636 Z M22.9090909,9.09090909 L1.09090909,9.09090909 C0.488727273,9.09090909 0,8.60218182 0,8 C0,7.39781818 0.488727273,6.90909091 1.09090909,6.90909091 L22.9090909,6.90909091 C23.5112727,6.90909091 24,7.39781818 24,8 C24,8.60218182 23.5112727,9.09090909 22.9090909,9.09090909 Z M22.9090909,2.54545455 L1.09090909,2.54545455 C0.488727273,2.54545455 0,2.05672727 0,1.45454545 C0,0.852363636 0.488727273,0.363636364 1.09090909,0.363636364 L22.9090909,0.363636364 C23.5112727,0.363636364 24,0.852363636 24,1.45454545 C24,2.05672727 23.5112727,2.54545455 22.9090909,2.54545455 Z" id="path-1"></path>
    </defs>
    <g id="Dash---Mobile---NEW" stroke="none" stroke-width="1" fill="none" fill-rule="evenodd">
        <g id="Dashboard-(XS)---Inactive" transform="translate(-17.000000, -22.000000)">
            <g id="Masthead/White/05-X-Small">
                <g id="burger-nav" transform="translate(17.000000, 22.000000)">
                    <mask id="mask-2" fill="white">
                        <use xlink:href="#path-1"></use>
                    </mask>
                    <use id="Combined-Shape" fill="#616161" xlink:href="#path-1"></use>
                </g>
            </g>
        </g>
    </g>
</svg>