<?xml version="1.0" encoding="UTF-8"?>
<svg width="24px" height="23px" viewBox="0 0 24 23" version="1.1" xmlns="http://www.w3.org/2000/svg" xmlns:xlink="http://www.w3.org/1999/xlink">
    <!-- Generator: Sketch 55.1 (78136) - https://sketchapp.com -->
    <title>Chat</title>
    <desc>Created with Sketch.</desc>
    <defs>
        <polygon id="path-1" points="0 0 24 0 24 23 0 23"></polygon>
    </defs>
    <g id="Dash---NEW" stroke="none" stroke-width="1" fill="none" fill-rule="evenodd">
        <g id="Account-Details-(XL)" transform="translate(-1193.000000, -28.000000)">
            <g id="Chat" transform="translate(1205.000000, 39.500000) scale(-1, 1) translate(-1205.000000, -39.500000) translate(1193.000000, 28.000000)">
                <g id="Group-3" transform="translate(12.000000, 11.500000) scale(-1, 1) translate(-12.000000, -11.500000) ">
                    <mask id="mask-2" fill="white">
                        <use xlink:href="#path-1"></use>
                    </mask>
                    <g id="Clip-2"></g>
                    <path d="M1.70165542,22.3345031 C1.7008243,22.3358331 1.6999889,22.3371746 1.6991428,22.3385371 C1.70135776,22.3349702 1.70360199,22.3307031 1.70581696,22.3257769 Z M2.03903272,21.8246029 C4.39912773,22.2092732 6.78050061,21.8255105 8.72658001,20.7954241 L9.05369981,20.6222751 L9.41472363,20.703821 C10.3130151,20.9067218 11.1731131,21.0134875 11.9976,21.017686 C18.0798914,21.017686 23,16.5196265 23,11.0076429 C23,5.49649458 18.0807976,1 12,1 C5.91997357,1 1,5.49688947 1,11.0076429 C1,13.6180421 1.77384133,15.6150388 3.99378364,17.6436957 L4.65382697,18.2468652 L4.1279683,18.9700134 C4.0453513,19.0836263 3.96074048,19.1976202 3.868959,19.3192605 C3.79639445,19.4151735 3.79639445,19.4151735 3.72421378,19.5097585 C2.7093721,20.8374624 2.54357556,21.0574358 2.03903272,21.8246029 Z" id="Fill-1" stroke="#616161" stroke-width="2" mask="url(#mask-2)"></path>
                </g>
            </g>
        </g>
    </g>
</svg>