<?xml version="1.0" encoding="UTF-8"?>
<svg width="57px" height="20px" viewBox="0 0 57 20" version="1.1" xmlns="http://www.w3.org/2000/svg" xmlns:xlink="http://www.w3.org/1999/xlink">
    <!-- Generator: Sketch 55.2 (78181) - https://sketchapp.com -->
    <title>Exit</title>
    <desc>Created with Sketch.</desc>
    <g id="Dash---NEW" stroke="none" stroke-width="1" fill="none" fill-rule="evenodd">
        <g id="Exit" transform="translate(-2.000000, -1.000000)" fill="#616161" fill-rule="nonzero">
            <path d="M2.398,4.976 C2.398,4.47199748 2.64399754,4.22 3.136,4.22 L9.292,4.22 C9.79600252,4.22 10.048,4.47199748 10.048,4.976 L10.048,5.48 C10.048,5.97200246 9.79600252,6.218 9.292,6.218 L4.702,6.218 L4.702,9.566 L8.266,9.566 C8.77000252,9.566 9.022,9.81199754 9.022,10.304 L9.022,10.808 C9.022,11.3120025 8.77000252,11.564 8.266,11.564 L4.702,11.564 L4.702,15.002 L9.58,15.002 C10.0840025,15.002 10.336,15.2479975 10.336,15.74 L10.336,16.244 C10.336,16.7480025 10.0840025,17 9.58,17 L3.136,17 C2.64399754,17 2.398,16.7480025 2.398,16.244 L2.398,4.976 Z M14.062,12.356 L11.686,8.72 C11.5179992,8.46799874 11.4789995,8.25500087 11.569,8.081 C11.6590004,7.90699913 11.8599984,7.82 12.172,7.82 L13.09,7.82 C13.4740019,7.82 13.767999,7.9999982 13.972,8.36 L15.124,10.322 C15.1480001,10.3820003 15.1809998,10.4449997 15.223,10.511 C15.2650002,10.5770003 15.2979999,10.6399997 15.322,10.7 C15.3580002,10.7600003 15.3879999,10.8259996 15.412,10.898 L15.448,10.898 C15.4840002,10.8259996 15.5199998,10.7600003 15.556,10.7 C15.5800001,10.6399997 15.6099998,10.5770003 15.646,10.511 C15.6820002,10.4449997 15.7119999,10.3820003 15.736,10.322 L16.888,8.36 C17.080001,7.9999982 17.373998,7.82 17.77,7.82 L18.688,7.82 C19.0000016,7.82 19.2009995,7.90699913 19.291,8.081 C19.3810005,8.25500087 19.3420008,8.46799874 19.174,8.72 L16.816,12.356 L19.264,16.1 C19.4320008,16.3520013 19.4680005,16.5649991 19.372,16.739 C19.2759995,16.9130009 19.0720016,17 18.76,17 L17.896,17 C17.499998,17 17.206001,16.8260017 17.014,16.478 L15.7,14.336 L15.538,14.012 C15.5019998,13.9639998 15.4720001,13.9100003 15.448,13.85 L15.412,13.85 C15.3999999,13.9100003 15.3760002,13.9639998 15.34,14.012 C15.3159999,14.0600002 15.2860002,14.1139997 15.25,14.174 C15.2139998,14.2340003 15.1840001,14.2879998 15.16,14.336 L13.864,16.478 C13.659999,16.8260017 13.3660019,17 12.982,17 L12.1,17 C11.7879984,17 11.5870004,16.9130009 11.497,16.739 C11.4069995,16.5649991 11.4459992,16.3520013 11.614,16.1 L14.062,12.356 Z M21.784,6.254 C21.2919975,6.254 21.046,6.00800246 21.046,5.516 L21.046,4.976 C21.046,4.47199748 21.2919975,4.22 21.784,4.22 L22.576,4.22 C23.0800025,4.22 23.332,4.47199748 23.332,4.976 L23.332,5.516 C23.332,6.00800246 23.0800025,6.254 22.576,6.254 L21.784,6.254 Z M21.046,8.576 C21.046,8.07199748 21.2919975,7.82 21.784,7.82 L22.576,7.82 C23.0680025,7.82 23.314,8.07199748 23.314,8.576 L23.314,16.244 C23.314,16.7480025 23.0680025,17 22.576,17 L21.784,17 C21.2919975,17 21.046,16.7480025 21.046,16.244 L21.046,8.576 Z M26.086,9.764 L25.6,9.764 C25.1079975,9.764 24.862,9.51200252 24.862,9.008 L24.862,8.702 C24.862,8.19799748 25.1139975,7.946 25.618,7.946 L26.14,7.946 L26.14,6.074 C26.14,5.56999748 26.3919975,5.318 26.896,5.318 L27.616,5.318 C28.1200025,5.318 28.372,5.56999748 28.372,6.074 L28.372,7.946 L29.704,7.946 C30.2080025,7.946 30.46,8.19799748 30.46,8.702 L30.46,9.008 C30.46,9.51200252 30.2140025,9.764 29.722,9.764 L28.372,9.764 L28.372,13.328 C28.372,13.6760017 28.4199995,13.954999 28.516,14.165 C28.6120005,14.375001 28.7319993,14.5429994 28.876,14.669 C29.0200007,14.7950006 29.1789991,14.8849997 29.353,14.939 C29.5270009,14.9930003 29.6919992,15.0259999 29.848,15.038 C30.1240014,15.0620001 30.3189994,15.1279995 30.433,15.236 C30.5470006,15.3440005 30.604,15.5239987 30.604,15.776 L30.604,16.334 C30.604,16.6100014 30.5260008,16.8049994 30.37,16.919 C30.2139992,17.0330006 29.9800016,17.09 29.668,17.09 C29.259998,17.09 28.8430021,17.0300006 28.417,16.91 C27.9909979,16.7899994 27.6070017,16.5980013 27.265,16.334 C26.9229983,16.0699987 26.6410011,15.7250021 26.419,15.299 C26.1969989,14.8729979 26.086,14.3480031 26.086,13.724 L26.086,9.764 Z"></path>
            <path d="M46.6843482,19.0009091 C47.2277363,19.0009091 47.669464,19.4490909 47.669464,20.0004545 C47.669464,20.5518182 47.2277363,21 46.6843482,21 L40.8946565,21 C40.3512684,21 39.9090909,20.5518182 39.9090909,20.0004545 L39.9090909,2 C39.9090909,1.44863636 40.3512684,1 40.8946565,1 L46.6843482,1 C47.2277363,1 47.669464,1.44863636 47.669464,2 C47.669464,2.55136364 47.2277363,2.99954545 46.6843482,2.99954545 L41.8802221,2.99954545 L41.8802221,19.0009091 L46.6843482,19.0009091 Z M57.7643365,10.2571364 C57.9717056,10.4466818 58.0909091,10.7175909 58.0909091,11.0003182 C58.0909091,11.2835 57.9717056,11.5544091 57.7643365,11.7439545 L53.9048419,15.2657727 C53.7235626,15.4312273 53.489204,15.5221364 53.2458489,15.5221364 C52.702011,15.5221364 52.2602833,15.0735 52.2602833,14.5221364 C52.2602833,14.2394091 52.3785872,13.9685 52.5859563,13.7789545 L54.5359457,11.9998636 L47.0702077,11.9998636 C46.5268197,11.9998636 46.0841923,11.5516818 46.0841923,11.0003182 C46.0841923,10.4489545 46.5268197,10.0007727 47.0702077,10.0007727 L54.5359457,10.0007727 L52.5859563,8.22122727 C52.3785872,8.03213636 52.2602833,7.76168182 52.2602833,7.47895455 C52.2602833,6.92713636 52.702011,6.4785 53.2458489,6.4785 C53.489204,6.4785 53.7235626,6.56986364 53.9048419,6.73486364 L57.7643365,10.2571364 Z" id="Combined-Shape"></path>
        </g>
    </g>
</svg>