<?xml version="1.0" encoding="UTF-8"?>
<svg width="27px" height="24px" viewBox="0 0 27 24" version="1.1" xmlns="http://www.w3.org/2000/svg" xmlns:xlink="http://www.w3.org/1999/xlink">
    <!-- Generator: Sketch 55.1 (78136) - https://sketchapp.com -->
    <title>sign-out</title>
    <desc>Created with Sketch.</desc>
    <defs>
        <polygon id="path-1" points="0 0.56645188 17.4285644 0.56645188 17.4285644 22.9559481 0 22.9559481"></polygon>
        <polygon id="path-3" points="0.0567445055 0.50721 16.0714286 0.50721 16.0714286 11.99946 0.0567445055 11.99946"></polygon>
    </defs>
    <g id="Dash---NEW" stroke="none" stroke-width="1" fill="none" fill-rule="evenodd">
        <g id="Account-Details-(XL)" transform="translate(-1243.000000, -27.000000)">
            <g id="sign-out" transform="translate(1243.000000, 27.000000)">
                <g id="Group-10">
                    <g id="Group-3">
                        <mask id="mask-2" fill="white">
                            <use xlink:href="#path-1"></use>
                        </mask>
                        <g id="Clip-2"></g>
                        <path d="M9.42936886,2.70168496 C12.2246544,2.70168496 14.4981533,4.96785789 14.4981533,7.75413609 C14.4981533,9.6823015 13.4173096,11.4155797 11.6765952,12.2767376 C11.2311824,12.4972038 10.9971727,12.9947752 11.1102061,13.476512 C11.2244615,13.9588579 11.6564324,14.3011286 12.1531684,14.3011286 L12.4440003,14.3011286 C13.6439874,14.3011286 14.7553807,14.7834744 15.5728872,15.6592489 C15.9761415,16.0898278 16.6537309,16.1147977 17.0869238,15.7134519 C17.5201167,15.311497 17.5445564,14.6367 17.141913,14.204294 C16.4753214,13.4905195 15.655982,12.9442263 14.7584357,12.5983015 C15.9535348,11.2998654 16.6402891,9.58912105 16.6402891,7.75413609 C16.6402891,3.79061729 13.4057008,0.56645188 9.42936886,0.56645188 C5.45364795,0.56645188 2.2184486,3.79061729 2.2184486,7.75413609 C2.2184486,9.58851203 2.90520291,11.2986474 4.09908006,12.5964744 C1.70338287,13.5246248 -6.10991379e-05,15.8474368 -6.10991379e-05,18.5594143 L-6.10991379e-05,21.8883316 C-6.10991379e-05,22.4784744 0.479567134,22.9559481 1.07100679,22.9559481 C1.66244644,22.9559481 2.14207468,22.4784744 2.14207468,21.8883316 L2.14207468,18.5594143 C2.14207468,16.2116323 4.05936563,14.3011286 6.41534838,14.3011286 L6.70556929,14.3011286 C7.20291627,14.3011286 7.63488718,13.9588579 7.74914256,13.476512 C7.86217597,12.9941662 7.62816627,12.4972038 7.18214256,12.2767376 C5.44203912,11.4155797 4.36058438,9.6823015 4.36058438,7.75413609 C4.36058438,4.96785789 6.63469429,2.70168496 9.42936886,2.70168496" id="Fill-1" fill="#616161" mask="url(#mask-2)"></path>
                    </g>
                    <g id="Group-6" transform="translate(10.125000, 12.000000)">
                        <mask id="mask-4" fill="white">
                            <use xlink:href="#path-3"></use>
                        </mask>
                        <g id="Clip-5"></g>
                        <path d="M15.8895742,6.83646 C15.9062637,6.81186 15.9180082,6.78546 15.9322253,6.75966 C15.9526236,6.72546 15.9736401,6.69246 15.9890934,6.65526 C16.0039286,6.62166 16.0119643,6.58566 16.0224725,6.55026 C16.0317445,6.52026 16.0441071,6.49086 16.0509066,6.45966 C16.0787225,6.32406 16.0787225,6.18366 16.0509066,6.04806 C16.0441071,6.01626 16.0317445,5.98686 16.0224725,5.95566 C16.0119643,5.92146 16.0039286,5.88546 15.9890934,5.85126 C15.9736401,5.81466 15.9520055,5.78106 15.9322253,5.74686 C15.9180082,5.72166 15.9062637,5.69526 15.8895742,5.67066 C15.8500137,5.61246 15.804272,5.55786 15.752967,5.50866 L10.9179396,0.81546 C10.4945192,0.40446 9.80901099,0.40446 9.38559066,0.81546 C8.96217033,1.22586 8.96217033,1.89186 9.38559066,2.30226 L12.3724038,5.20146 L1.14032967,5.20146 C0.541978022,5.20146 0.0567445055,5.67246 0.0567445055,6.25326 C0.0567445055,6.83466 0.541978022,7.30506 1.14032967,7.30506 L12.3724038,7.30506 L9.38559066,10.20426 C8.96217033,10.61526 8.96217033,11.28066 9.38559066,11.69226 C9.59699176,11.89746 9.87453297,11.99946 10.1520742,11.99946 C10.4289973,11.99946 10.7059203,11.89746 10.9179396,11.69226 L15.752967,6.99846 C15.804272,6.94866 15.8500137,6.89466 15.8895742,6.83646" id="Fill-4" fill="#616161" mask="url(#mask-4)"></path>
                    </g>
                </g>
            </g>
        </g>
    </g>
</svg>