<?xml version="1.0" encoding="UTF-8"?>
<svg width="20px" height="22px" viewBox="0 0 20 22" version="1.1" xmlns="http://www.w3.org/2000/svg" xmlns:xlink="http://www.w3.org/1999/xlink">
    <!-- Generator: Sketch 55.1 (78136) - https://sketchapp.com -->
    <title>Group 3</title>
    <desc>Created with Sketch.</desc>
    <defs>
        <polygon id="path-1" points="0 0 20 0 20 22 0 22"></polygon>
    </defs>
    <g id="Dash---NEW" stroke="none" stroke-width="1" fill="none" fill-rule="evenodd">
        <g id="Group-3">
            <mask id="mask-2" fill="white">
                <use xlink:href="#path-1"></use>
            </mask>
            <g id="Clip-2"></g>
            <path d="M15.7581318,12.3391705 C16.811193,11.0107527 17.3923808,9.3609831 17.3923808,7.60675883 C17.3923808,3.4764977 14.1220608,0.105683564 10.0622484,0.00307219662 L10.0622484,0 C10.0416001,0.000614439324 10.0209519,0.00184331797 10.0003036,0.00184331797 C9.97904806,0.00184331797 9.9583998,0.000614439324 9.93775153,0 L9.93775153,0.00307219662 C5.87854647,0.105683564 2.6076191,3.4764977 2.6076191,7.60675883 C2.6076191,9.3609831 3.1894142,11.0107527 4.24247548,12.3391705 C4.24247548,12.3391705 -0.0517553753,14.2617512 0.000472577406,19.0414747 L0.000472577406,20.9173579 C0.000472577406,21.5152074 0.479026377,22 1.069931,22 C1.65779912,22 2.13696022,21.5152074 2.13696022,20.9173579 L2.13696022,19.0414747 C2.13696022,16.4798771 3.95279253,14.3164363 6.45305395,13.9023041 C6.87512868,13.8304147 7.21703958,13.5115207 7.31724437,13.0900154 C7.41927107,12.6672811 7.26076531,12.2254992 6.9176398,11.9668203 C5.53602826,10.9253456 4.74714326,9.33456221 4.74714326,7.60675883 C4.74714326,4.64823349 7.09011351,2.23533026 10.0003036,2.16589862 C12.9104937,2.23533026 15.253464,4.64823349 15.253464,7.60675883 C15.253464,9.33456221 14.4639717,10.9253456 13.0823601,11.9668203 C12.7392346,12.2254992 12.5807289,12.6672811 12.6833629,13.0900154 C12.7835677,13.5115207 13.1254786,13.8304147 13.546946,13.9023041 C16.0472074,14.3164363 17.8630397,16.4798771 17.8630397,19.0414747 L17.8630397,20.9173579 C17.8630397,21.5152074 18.3422008,22 18.9294616,22 C19.5209736,22 19.9995274,21.5152074 19.9995274,20.9173579 L19.9995274,19.0414747 C20.0517553,14.2617512 15.7581318,12.3391705 15.7581318,12.3391705" id="Fill-1" fill="#616161" mask="url(#mask-2)"></path>
        </g>
    </g>
</svg>