<svg xmlns="http://www.w3.org/2000/svg" aria-label="Twitter logo" viewBox="0 0 35 35" data-name="twitter_icon">
                                <path fill="#fff" d="M 12.9 27.7 A 14.5 14.5 0 0 0 27.5 13 v -0.7 A 10.6 10.6 0 0 0 30 9.7 a 10.4 10.4 0 0 1 -3 0.9 a 5.1 5.1 0 0 0 2.3 -2.9 A 10.4 10.4 0 0 1 26 9 a 5.1 5.1 0 0 0 -8.7 4.7 A 14.6 14.6 0 0 1 6.7 8.3 A 5.2 5.2 0 0 0 8.3 15 a 5.3 5.3 0 0 1 -2.3 -0.6 a 5.1 5.1 0 0 0 4.1 5 a 5 5 0 0 1 -1.3 0.2 a 5.2 5.2 0 0 1 -1 0 a 5.1 5.1 0 0 0 4.8 3.5 a 10.2 10.2 0 0 1 -6.4 2.2 H 5 a 14.6 14.6 0 0 0 7.8 2.2"/>
                            </svg>