<svg xmlns="http://www.w3.org/2000/svg" aria-label="YouTube logo" viewBox="0 0 35 35" data-name="youtube_icon">
                                <path fill="#fff" d="M 29.5 11.4 a 3.1 3.1 0 0 0 -2.2 -2.2 c -2 -0.5 -9.8 -0.5 -9.8 -0.5 s -7.8 0 -9.8 0.5 a 3.1 3.1 0 0 0 -2.2 2.2 a 33.2 33.2 0 0 0 -0.5 6.1 a 33.2 33.2 0 0 0 0.5 6 a 3.1 3.1 0 0 0 2.2 2.3 c 2 0.5 9.8 0.5 9.8 0.5 s 7.8 0 9.8 -0.5 a 3.1 3.1 0 0 0 2.2 -2.2 a 33.2 33.2 0 0 0 0.5 -6.1 a 33.2 33.2 0 0 0 -0.5 -6 Z m -14.6 9.8 v -7.4 l 6.6 3.7 Z"/>
                            </svg>